<svg width="456" height="599" viewBox="0 0 456 599" fill="none" xmlns="http://www.w3.org/2000/svg">
<path d="M9 4.22483C9.29169 4.22483 9.58338 4.22483 24.7558 4.95406C39.9281 5.68329 69.9724 7.14174 86.1789 7.74722C102.385 8.35271 103.844 8.06101 116.992 7.91075C130.14 7.76048 154.934 7.76048 168.873 7.61464C182.813 7.46879 185.146 7.1771 196.412 7.02684C207.677 6.87657 227.804 6.87657 238.902 6.58488C251.484 6.25417 255.002 4.81705 261.013 4.37509C270.79 3.65617 278.868 3.93314 286.045 3.49118C308.891 2.08444 315.382 2.457 324.067 1.72335C344.506 -0.00329244 354.54 2.457 364.294 3.19065C379.591 4.34127 386.113 2.457 393.18 1.57751C406.964 0.689174 426.198 0.980865 431.9 1.42282C436.726 1.57309 445.477 1.57309 454.493 1.57309" stroke="#8A6851" stroke-linecap="round"/>
<path d="M9 4.22483C9.29169 4.22483 9.58338 4.22483 24.7558 4.95406C39.9281 5.68329 69.9724 7.14174 86.1789 7.74722C102.385 8.35271 103.844 8.06101 116.992 7.91075C130.14 7.76048 154.934 7.76048 168.873 7.61464C182.813 7.46879 185.146 7.1771 196.412 7.02684C207.677 6.87657 227.804 6.87657 238.902 6.58488C251.484 6.25417 255.002 4.81705 261.013 4.37509C270.79 3.65617 278.868 3.93314 286.045 3.49118C308.891 2.08444 315.382 2.457 324.067 1.72335C344.506 -0.00329244 354.54 2.457 364.294 3.19065C379.591 4.34127 386.113 2.457 393.18 1.57751C406.964 0.689174 426.198 0.980865 431.9 1.42282C436.726 1.57309 445.477 1.57309 454.493 1.57309" stroke="#8A6851" stroke-linecap="round"/>
<path d="M7 47.8971C7.72514 47.8971 13.8998 47.8971 24.6835 48.2597C33.715 48.5634 49.3657 50.0945 67.67 50.2758C78.8041 50.3861 87.5124 52.6435 98.7026 53.5719C102.937 53.9232 117.474 54.4893 139.42 53.9455C154.201 53.5792 165.52 50.8307 181.38 50.4626C191.435 50.2292 205.578 50.8197 220.658 50.6439C251.339 50.2862 268.841 48.2707 271.582 46.9907C273.892 45.9121 280.52 45.6997 292.568 46.4249C306.93 47.2894 316.81 50.4571 329.171 51.0064C357.457 52.2636 377.612 50.8307 380.716 50.1C382.369 49.732 384.182 49.3694 395.812 49.1826C407.442 48.9958 428.833 48.9958 450.873 48.9958" stroke="#8A6851" stroke-linecap="round"/>
<path d="M8 99.6123C9.45028 99.6123 24.3376 99.6123 46.306 100.156C60.0486 100.496 70.5817 105.106 84.6285 106.93C109.642 110.177 127.747 106.941 130.301 106.21C137.421 104.173 144.216 104.381 151.896 101.821C162.768 98.1967 181.132 96.3162 195.976 97.2281C218.249 98.5965 235.771 98.1401 240.704 99.7826C245.439 101.359 258.755 103.271 276.329 104.002C290.702 104.599 304.626 104.381 315.41 103.645C324.545 103.021 335.389 102.535 357.473 102.727C372.112 102.855 379.315 98.8872 395.334 97.7885C407.002 97.4149 425.856 97.4149 436.112 97.5962C446.369 97.7775 447.456 98.1401 450.774 98.5136" stroke="#8A6851" stroke-linecap="round"/>
<path d="M11 163.04C13.549 163.765 20.1192 165.238 35.7866 166.15C46.6688 166.783 66.9895 166.336 77.993 166.155C90.0947 165.956 100.269 165.238 114.547 165.419C124.998 165.552 149.611 168.534 163.878 167.622C167.342 167.4 171.025 167.072 182.473 166.523C209.482 165.227 228.531 165.974 232.717 165.062C240.8 163.301 247.209 162.678 256.108 162.128C278.381 160.753 296.265 162.304 308.999 162.672C335.502 163.438 355.232 161.216 359.803 159.936C366.802 157.976 373.548 159.371 384.688 161.568C398.203 164.234 420.286 163.04 433.97 163.952C435.811 164.139 437.624 164.139 439.464 164.32C441.304 164.502 443.117 164.864 444.985 165.238" stroke="#8A6851" stroke-linecap="round"/>
<path d="M6 218.78C8.1864 219.143 30.6987 220.604 48.7942 223.714C61.3347 225.868 71.1746 223.911 80.986 223.725C104.588 223.275 122.44 225.735 133.712 226.285C158.734 227.504 177.737 226.109 184.664 224.653C195.376 222.402 204.106 219.879 210.671 219.517C220.184 218.991 237.704 217.682 263.628 217.319C277.59 217.124 293.177 216.231 303.203 216.039C317.215 215.77 322.776 216.946 335.85 217.676C347.462 218.325 369.229 218.407 381.523 218.412C395.993 218.055 400.41 217.319 412.045 216.951C421.505 216.946 438.183 217.308 455.367 217.682" stroke="#8A6851" stroke-linecap="round"/>
<path d="M5 272.443C9.36182 273.168 21.7881 274.64 34.6153 276.096C47.7868 277.591 56.2432 280.859 71.938 278.684C86.5826 276.654 101.257 274.64 111.683 274.822C118.144 274.934 121.451 276.102 138.871 276.651C155.196 277.166 186.746 276.838 204.265 276.656C224.328 276.449 229.475 275.376 237.127 274.827C259.818 273.198 269.368 275.739 275.807 276.651C279.597 277.188 289.848 275.387 307.372 273.19C327.652 270.647 340.091 272.806 344.64 273.899C353.817 276.104 371.844 276.838 391.06 276.656C409.617 275.739 427.229 274.289 438.199 272.63C442.226 272.443 447.665 272.443 453.268 272.443" stroke="#8A6851" stroke-linecap="round"/>
<path d="M5 323.225C5.29169 323.225 5.58338 323.225 20.7558 323.954C35.9281 324.683 65.9724 326.142 82.1789 326.747C98.3855 327.353 99.8439 327.061 112.992 326.911C126.14 326.76 150.934 326.76 164.873 326.615C178.813 326.469 181.146 326.177 192.412 326.027C203.677 325.877 223.804 325.877 234.902 325.585C247.484 325.254 251.002 323.817 257.013 323.375C266.79 322.656 274.868 322.933 282.045 322.491C304.891 321.084 311.382 321.457 320.067 320.723C340.506 318.997 350.54 321.457 360.294 322.191C375.591 323.341 382.113 321.457 389.18 320.578C402.964 319.689 422.198 319.981 427.9 320.423C432.726 320.573 441.477 320.573 450.493 320.573" stroke="#8A6851" stroke-linecap="round"/>
<path d="M5 323.225C5.29169 323.225 5.58338 323.225 20.7558 323.954C35.9281 324.683 65.9724 326.142 82.1789 326.747C98.3855 327.353 99.8439 327.061 112.992 326.911C126.14 326.76 150.934 326.76 164.873 326.615C178.813 326.469 181.146 326.177 192.412 326.027C203.677 325.877 223.804 325.877 234.902 325.585C247.484 325.254 251.002 323.817 257.013 323.375C266.79 322.656 274.868 322.933 282.045 322.491C304.891 321.084 311.382 321.457 320.067 320.723C340.506 318.997 350.54 321.457 360.294 322.191C375.591 323.341 382.113 321.457 389.18 320.578C402.964 319.689 422.198 319.981 427.9 320.423C432.726 320.573 441.477 320.573 450.493 320.573" stroke="#8A6851" stroke-linecap="round"/>
<path d="M3 366.897C3.72514 366.897 9.89981 366.897 20.6835 367.26C29.715 367.563 45.3657 369.095 63.67 369.276C74.8041 369.386 83.5124 371.644 94.7026 372.572C98.9366 372.923 113.474 373.489 135.42 372.945C150.201 372.579 161.52 369.831 177.38 369.463C187.435 369.229 201.578 369.82 216.658 369.644C247.339 369.286 264.841 367.271 267.582 365.991C269.892 364.912 276.52 364.7 288.568 365.425C302.93 366.289 312.81 369.457 325.171 370.006C353.457 371.264 373.612 369.831 376.716 369.1C378.369 368.732 380.182 368.369 391.812 368.183C403.442 367.996 424.833 367.996 446.873 367.996" stroke="#8A6851" stroke-linecap="round"/>
<path d="M4 418.612C5.45028 418.612 20.3376 418.612 42.306 419.156C56.0486 419.496 66.5817 424.106 80.6285 425.93C105.642 429.177 123.747 425.941 126.301 425.21C133.421 423.173 140.216 423.381 147.896 420.821C158.768 417.197 177.132 415.316 191.976 416.228C214.249 417.597 231.771 417.14 236.704 418.783C241.439 420.359 254.755 422.271 272.329 423.002C286.702 423.599 300.626 423.381 311.41 422.645C320.545 422.021 331.389 421.535 353.473 421.727C368.112 421.855 375.315 417.887 391.334 416.788C403.002 416.415 421.856 416.415 432.112 416.596C442.369 416.777 443.456 417.14 446.774 417.514" stroke="#8A6851" stroke-linecap="round"/>
<path d="M7 482.04C9.54897 482.765 16.1192 484.238 31.7866 485.15C42.6688 485.783 62.9895 485.336 73.993 485.155C86.0947 484.956 96.269 484.238 110.547 484.419C120.998 484.552 145.611 487.534 159.878 486.622C163.342 486.4 167.025 486.072 178.473 485.523C205.482 484.227 224.531 484.974 228.717 484.062C236.8 482.301 243.209 481.678 252.108 481.128C274.381 479.753 292.265 481.304 304.999 481.672C331.502 482.438 351.232 480.216 355.803 478.936C362.802 476.976 369.548 478.371 380.688 480.568C394.203 483.234 416.286 482.04 429.97 482.952C431.811 483.139 433.624 483.139 435.464 483.32C437.304 483.502 439.117 483.864 440.985 484.238" stroke="#8A6851" stroke-linecap="round"/>
<path d="M2 537.78C4.1864 538.143 26.6987 539.604 44.7942 542.714C57.3347 544.868 67.1746 542.911 76.986 542.725C100.588 542.275 118.44 544.735 129.712 545.285C154.734 546.504 173.737 545.109 180.664 543.653C191.376 541.402 200.106 538.879 206.671 538.517C216.184 537.991 233.704 536.682 259.628 536.319C273.59 536.124 289.177 535.231 299.203 535.039C313.215 534.77 318.776 535.946 331.85 536.676C343.462 537.325 365.229 537.407 377.523 537.412C391.993 537.055 396.41 536.319 408.045 535.951C417.505 535.946 434.183 536.308 451.367 536.682" stroke="#8A6851" stroke-linecap="round"/>
<path d="M1 591.443C5.36182 592.168 17.7881 593.64 30.6153 595.096C43.7868 596.591 52.2432 599.859 67.938 597.684C82.5826 595.654 97.2567 593.64 107.683 593.822C114.144 593.934 117.451 595.102 134.871 595.651C151.196 596.166 182.746 595.838 200.265 595.656C220.328 595.449 225.475 594.376 233.127 593.827C255.818 592.198 265.368 594.739 271.807 595.651C275.597 596.188 285.848 594.387 303.372 592.19C323.652 589.647 336.091 591.806 340.64 592.899C349.817 595.104 367.844 595.838 387.06 595.656C405.617 594.739 423.229 593.289 434.199 591.63C438.226 591.443 443.665 591.443 449.268 591.443" stroke="#8A6851" stroke-linecap="round"/>
</svg>
