<svg width="64" height="64" viewBox="0 0 64 64" fill="none" xmlns="http://www.w3.org/2000/svg">
<g clip-path="url(#clip0_99_73)">
<path fill-rule="evenodd" clip-rule="evenodd" d="M10.6667 13.3333C10.6667 11.2116 11.5096 9.17675 13.0099 7.67646C14.5102 6.17617 16.545 5.33331 18.6667 5.33331H45.3334C47.4551 5.33331 49.49 6.17617 50.9903 7.67646C52.4906 9.17675 53.3334 11.2116 53.3334 13.3333V56.0746C53.3334 59.328 49.6534 61.2213 47.0081 59.3306L32.0001 48.6106L16.9921 59.3306C14.3441 61.224 10.6667 59.3306 10.6667 56.0773V13.3333ZM18.6667 10.6666C17.9595 10.6666 17.2812 10.9476 16.7811 11.4477C16.281 11.9478 16.0001 12.6261 16.0001 13.3333V53.4853L29.6747 43.7173C30.3532 43.2326 31.1662 42.972 32.0001 42.972C32.8339 42.972 33.6469 43.2326 34.3254 43.7173L48.0001 53.4853V13.3333C48.0001 12.6261 47.7191 11.9478 47.219 11.4477C46.7189 10.9476 46.0407 10.6666 45.3334 10.6666H18.6667Z" fill="#8A6851"/>
</g>
<defs>
<clipPath id="clip0_99_73">
<rect width="64" height="64" fill="white"/>
</clipPath>
</defs>
</svg>
