<svg width="42" height="41" viewBox="0 0 42 41" fill="none" xmlns="http://www.w3.org/2000/svg">
<g clip-path="url(#clip0_58_354)">
<path d="M21 3.41663C23.7167 3.41653 26.3276 4.4443 28.2843 6.284C30.241 8.12371 31.3911 10.6321 31.493 13.2823L31.5 13.6666H33.25C34.133 13.6664 34.9835 13.9919 35.631 14.578C36.2784 15.1641 36.675 15.9675 36.7413 16.827L36.75 17.0833V34.1666C36.7503 35.0286 36.4168 35.8588 35.8164 36.4909C35.216 37.1229 34.393 37.5101 33.5125 37.5748L33.25 37.5833H8.75C7.86699 37.5836 7.01651 37.258 6.36904 36.6719C5.72157 36.0858 5.32498 35.2824 5.25875 34.4229L5.25 34.1666V17.0833C5.24972 16.2213 5.58321 15.3911 6.18362 14.759C6.78403 14.127 7.60698 13.7398 8.4875 13.6752L8.75 13.6666H10.5C10.5 10.9482 11.6062 8.34103 13.5754 6.41878C15.5445 4.49653 18.2152 3.41663 21 3.41663ZM33.25 17.0833H8.75V34.1666H33.25V17.0833ZM21 20.5C21.7465 20.5002 22.4734 20.7334 23.0745 21.1656C23.6756 21.5978 24.1194 22.2063 24.3411 22.9022C24.5627 23.598 24.5506 24.3449 24.3066 25.0336C24.0625 25.7223 23.5993 26.3168 22.9845 26.7303L22.75 26.8755V29.0416C22.7495 29.477 22.5787 29.8958 22.2725 30.2125C21.9663 30.5291 21.5478 30.7196 21.1026 30.7451C20.6573 30.7706 20.2188 30.6292 19.8768 30.3498C19.5348 30.0703 19.3149 29.6739 19.2622 29.2415L19.25 29.0416V26.8755C18.5828 26.4994 18.0614 25.9189 17.7665 25.224C17.4717 24.5292 17.42 23.7588 17.6194 23.0323C17.8188 22.3058 18.2582 21.6639 18.8694 21.206C19.4807 20.7482 20.2296 20.5 21 20.5ZM21 6.83329C19.1435 6.83329 17.363 7.55323 16.0503 8.83473C14.7375 10.1162 14 11.8543 14 13.6666H28C28 11.8543 27.2625 10.1162 25.9497 8.83473C24.637 7.55323 22.8565 6.83329 21 6.83329Z" fill="#C83F00"/>
</g>
<defs>
<clipPath id="clip0_58_354">
<rect width="42" height="41" fill="white"/>
</clipPath>
</defs>
</svg>
