<svg width="34" height="35" viewBox="0 0 34 35" fill="none" xmlns="http://www.w3.org/2000/svg">
<g clip-path="url(#clip0_92_24)">
<path d="M2.92959 7.99459L15.5025 20.9388C15.8744 21.3219 16.3713 21.5494 16.8968 21.5771C17.4223 21.6049 17.9391 21.4309 18.3472 21.089L18.5087 20.9388L31.0731 8.00334C31.1142 8.16376 31.1411 8.32709 31.1553 8.4948L31.1666 8.75001V26.25C31.1668 26.9859 30.8968 27.6946 30.4108 28.2341C29.9248 28.7737 29.2586 29.1042 28.5458 29.1594L28.3333 29.1667H5.66659C4.95177 29.1669 4.26328 28.889 3.73914 28.3887C3.215 27.8883 2.89395 27.2025 2.84034 26.4688L2.83325 26.25V8.75001C2.83325 8.57501 2.84742 8.40584 2.87575 8.23959L2.92959 7.99459ZM28.3333 5.83334C28.5047 5.83334 28.6733 5.84793 28.8362 5.87855L29.077 5.93543L17.007 18.3604L4.93275 5.93251C5.08859 5.88876 5.25009 5.85959 5.41442 5.84501L5.66659 5.83334H28.3333Z" fill="#8A6851"/>
</g>
<defs>
<clipPath id="clip0_92_24">
<rect width="34" height="35" fill="white"/>
</clipPath>
</defs>
</svg>
