<svg width="65" height="65" viewBox="0 0 65 65" fill="none" xmlns="http://www.w3.org/2000/svg">
<g clip-path="url(#clip0_51_144)">
<path d="M18.2 45.0666C18.8895 44.8655 19.6308 44.9466 20.2606 45.2919C20.8904 45.6373 21.3572 46.2187 21.5583 46.9083C21.7594 47.5979 21.6784 48.3391 21.333 48.9689C20.9876 49.5987 20.4062 50.0655 19.7166 50.2666C18.3625 50.662 17.3875 51.0791 16.7619 51.4583C17.4064 51.8456 18.4248 52.2789 19.8385 52.6825C22.9666 53.5762 27.4435 54.1666 32.5 54.1666C37.5564 54.1666 42.0333 53.5762 45.1614 52.6825C46.5779 52.2789 47.5935 51.8456 48.2381 51.4583C47.6152 51.0791 46.6402 50.662 45.286 50.2666C44.6073 50.0566 44.0383 49.5884 43.7016 48.9628C43.3649 48.3372 43.2875 47.6043 43.4861 46.9222C43.6847 46.2401 44.1434 45.6633 44.7633 45.3162C45.3832 44.9691 46.1146 44.8795 46.8 45.0666C48.6091 45.5948 50.2666 46.2718 51.5396 47.1412C52.7177 47.951 54.1666 49.362 54.1666 51.4583C54.1666 53.5789 52.6825 55.0008 51.4854 55.8106C50.1908 56.6827 48.4981 57.3625 46.6483 57.8906C42.9162 58.9604 37.9166 59.5833 32.5 59.5833C27.0833 59.5833 22.0837 58.9604 18.3516 57.8906C16.5019 57.3625 14.8091 56.6827 13.5146 55.8106C12.3175 54.9981 10.8333 53.5789 10.8333 51.4583C10.8333 49.362 12.2823 47.951 13.4604 47.1412C14.7333 46.2718 16.3908 45.5948 18.2 45.0666ZM32.5 5.41663C37.8872 5.41663 43.0538 7.55669 46.8631 11.366C50.6724 15.1754 52.8125 20.3419 52.8125 25.7291C52.8125 32.6841 49.0208 38.3391 45.0937 42.3583C43.5326 43.9398 41.8551 45.4018 40.0752 46.7323C38.4664 47.9402 34.7885 50.2043 34.7885 50.2043C34.091 50.6008 33.3024 50.8093 32.5 50.8093C31.6976 50.8093 30.909 50.6008 30.2114 50.2043C28.3854 49.1472 26.6204 47.988 24.9248 46.7323C23.1442 45.4027 21.4665 43.9406 19.9062 42.3583C15.9791 38.3391 12.1875 32.6841 12.1875 25.7291C12.1875 20.3419 14.3275 15.1754 18.1369 11.366C21.9462 7.55669 27.1128 5.41663 32.5 5.41663ZM32.5 10.8333C28.5494 10.8333 24.7605 12.4027 21.967 15.1962C19.1735 17.9897 17.6041 21.7785 17.6041 25.7291C17.6041 30.6475 20.3016 35.0133 23.7791 38.5666C26.3954 41.2425 29.2771 43.2791 31.2731 44.5304L32.5 45.2725L33.7269 44.5304C35.7202 43.2791 38.6046 41.2425 41.2208 38.5693C44.6983 35.0133 47.3958 30.6502 47.3958 25.7291C47.3958 21.7785 45.8264 17.9897 43.0329 15.1962C40.2394 12.4027 36.4506 10.8333 32.5 10.8333ZM32.5 17.6041C33.567 17.6041 34.6235 17.8143 35.6093 18.2226C36.5951 18.6309 37.4907 19.2294 38.2452 19.9839C38.9997 20.7384 39.5982 21.6341 40.0065 22.6198C40.4148 23.6056 40.625 24.6621 40.625 25.7291C40.625 26.7961 40.4148 27.8527 40.0065 28.8384C39.5982 29.8242 38.9997 30.7199 38.2452 31.4744C37.4907 32.2288 36.5951 32.8273 35.6093 33.2356C34.6235 33.644 33.567 33.8541 32.5 33.8541C30.3451 33.8541 28.2785 32.9981 26.7547 31.4744C25.231 29.9506 24.375 27.884 24.375 25.7291C24.375 23.5742 25.231 21.5076 26.7547 19.9839C28.2785 18.4602 30.3451 17.6041 32.5 17.6041ZM32.5 23.0208C31.7817 23.0208 31.0928 23.3061 30.5849 23.814C30.077 24.322 29.7916 25.0108 29.7916 25.7291C29.7916 26.4474 30.077 27.1363 30.5849 27.6442C31.0928 28.1521 31.7817 28.4375 32.5 28.4375C33.2183 28.4375 33.9071 28.1521 34.4151 27.6442C34.923 27.1363 35.2083 26.4474 35.2083 25.7291C35.2083 25.0108 34.923 24.322 34.4151 23.814C33.9071 23.3061 33.2183 23.0208 32.5 23.0208Z" fill="#F6E7D8"/>
</g>
<defs>
<clipPath id="clip0_51_144">
<rect width="65" height="65" fill="white"/>
</clipPath>
</defs>
</svg>
