<svg width="65" height="68" viewBox="0 0 65 68" fill="none" xmlns="http://www.w3.org/2000/svg">
<g clip-path="url(#clip0_51_148)" filter="url(#filter0_d_51_148)">
<path d="M18.2 45.0666C18.8895 44.8655 19.6308 44.9466 20.2606 45.2919C20.8904 45.6373 21.3572 46.2187 21.5583 46.9083C21.7594 47.5979 21.6784 48.3391 21.333 48.9689C20.9876 49.5987 20.4062 50.0655 19.7166 50.2666C18.3625 50.662 17.3875 51.0791 16.7619 51.4583C17.4064 51.8456 18.4248 52.2789 19.8385 52.6825C22.9666 53.5762 27.4435 54.1666 32.5 54.1666C37.5564 54.1666 42.0333 53.5762 45.1614 52.6825C46.5779 52.2789 47.5935 51.8456 48.2381 51.4583C47.6152 51.0791 46.6402 50.662 45.286 50.2666C44.6073 50.0566 44.0383 49.5884 43.7016 48.9628C43.3649 48.3372 43.2875 47.6043 43.4861 46.9222C43.6847 46.2401 44.1434 45.6633 44.7633 45.3162C45.3832 44.9691 46.1146 44.8795 46.8 45.0666C48.6091 45.5948 50.2666 46.2718 51.5396 47.1412C52.7177 47.951 54.1666 49.362 54.1666 51.4583C54.1666 53.5789 52.6825 55.0008 51.4854 55.8106C50.1908 56.6827 48.4981 57.3625 46.6483 57.8906C42.9162 58.9604 37.9166 59.5833 32.5 59.5833C27.0833 59.5833 22.0837 58.9604 18.3516 57.8906C16.5019 57.3625 14.8091 56.6827 13.5146 55.8106C12.3175 54.9981 10.8333 53.5789 10.8333 51.4583C10.8333 49.362 12.2823 47.951 13.4604 47.1412C14.7333 46.2718 16.3908 45.5948 18.2 45.0666ZM32.5 5.41663C37.8872 5.41663 43.0538 7.55669 46.8631 11.366C50.6724 15.1754 52.8125 20.3419 52.8125 25.7291C52.8125 32.6841 49.0208 38.3391 45.0937 42.3583C43.5326 43.9398 41.8551 45.4018 40.0752 46.7323C38.4664 47.9402 34.7885 50.2043 34.7885 50.2043C34.091 50.6008 33.3024 50.8093 32.5 50.8093C31.6976 50.8093 30.909 50.6008 30.2114 50.2043C28.3854 49.1472 26.6204 47.988 24.9248 46.7323C23.1442 45.4027 21.4665 43.9406 19.9062 42.3583C15.9791 38.3391 12.1875 32.6841 12.1875 25.7291C12.1875 20.3419 14.3275 15.1754 18.1369 11.366C21.9462 7.55669 27.1128 5.41663 32.5 5.41663ZM32.5 20.3125C31.0634 20.3125 29.6856 20.8831 28.6698 21.899C27.654 22.9148 27.0833 24.2925 27.0833 25.7291C27.0833 27.1657 27.654 28.5435 28.6698 29.5593C29.6856 30.5751 31.0634 31.1458 32.5 31.1458C33.9366 31.1458 35.3143 30.5751 36.3301 29.5593C37.346 28.5435 37.9166 27.1657 37.9166 25.7291C37.9166 24.2925 37.346 22.9148 36.3301 21.899C35.3143 20.8831 33.9366 20.3125 32.5 20.3125Z" fill="#F6E7D8"/>
</g>
<defs>
<filter id="filter0_d_51_148" x="-4" y="0" width="73" height="73" filterUnits="userSpaceOnUse" color-interpolation-filters="sRGB">
<feFlood flood-opacity="0" result="BackgroundImageFix"/>
<feColorMatrix in="SourceAlpha" type="matrix" values="0 0 0 0 0 0 0 0 0 0 0 0 0 0 0 0 0 0 127 0" result="hardAlpha"/>
<feOffset dy="4"/>
<feGaussianBlur stdDeviation="2"/>
<feComposite in2="hardAlpha" operator="out"/>
<feColorMatrix type="matrix" values="0 0 0 0 0 0 0 0 0 0 0 0 0 0 0 0 0 0 0.25 0"/>
<feBlend mode="normal" in2="BackgroundImageFix" result="effect1_dropShadow_51_148"/>
<feBlend mode="normal" in="SourceGraphic" in2="effect1_dropShadow_51_148" result="shape"/>
</filter>
<clipPath id="clip0_51_148">
<rect width="65" height="65" fill="white"/>
</clipPath>
</defs>
</svg>
