<svg width="94" height="93" viewBox="0 0 94 93" fill="none" xmlns="http://www.w3.org/2000/svg">
<g clip-path="url(#clip0_77_26)">
<path d="M62.6667 54.25C67.7132 54.2503 72.5647 56.178 76.2096 59.6311C79.8545 63.0841 82.0114 67.796 82.2304 72.7841L82.25 73.625V77.5C82.2506 79.4552 81.5042 81.3384 80.1605 82.7721C78.8167 84.2058 76.9749 85.084 75.0042 85.2306L74.4167 85.25H19.5833C17.6071 85.2506 15.7036 84.5122 14.2545 83.1827C12.8054 81.8532 11.9178 80.031 11.7696 78.0812L11.75 77.5V73.625C11.7503 68.6322 13.6987 63.8322 17.1889 60.2261C20.6791 56.62 25.4417 54.4861 30.4834 54.2694L31.3333 54.25H62.6667ZM47 7.75C52.1938 7.75 57.1749 9.79129 60.8475 13.4248C64.5201 17.0583 66.5833 21.9864 66.5833 27.125C66.5833 32.2636 64.5201 37.1917 60.8475 40.8252C57.1749 44.4587 52.1938 46.5 47 46.5C41.8062 46.5 36.8251 44.4587 33.1525 40.8252C29.4799 37.1917 27.4167 32.2636 27.4167 27.125C27.4167 21.9864 29.4799 17.0583 33.1525 13.4248C36.8251 9.79129 41.8062 7.75 47 7.75Z" fill="#F6E7D8"/>
</g>
<defs>
<clipPath id="clip0_77_26">
<rect width="94" height="93" fill="white"/>
</clipPath>
</defs>
</svg>
