<svg width="40" height="40" viewBox="0 0 40 40" fill="none" xmlns="http://www.w3.org/2000/svg">
<path opacity="0.5" d="M3.33331 18.75C3.33331 13.9167 6.69165 10 10.8333 10C14.975 10 18.3333 13.9167 18.3333 18.75V33.3333H7.05498C4.99998 33.3333 3.33331 31.39 3.33331 28.9917V18.75Z" fill="#F15454"/>
<path opacity="0.8" d="M18.3333 18.75V33.3333H32.9883C35.02 33.3333 36.6666 31.4117 36.6666 29.0417V18.75C36.6666 13.9167 33.3083 10 29.1666 10H10.8333C14.975 10 18.3333 13.9167 18.3333 18.75Z" fill="#F15454"/>
<path d="M15.8333 33.3334V36.6667C15.8333 36.9982 15.965 37.3162 16.1994 37.5506C16.4339 37.785 16.7518 37.9167 17.0833 37.9167C17.4148 37.9167 17.7328 37.785 17.9672 37.5506C18.2016 37.3162 18.3333 36.9982 18.3333 36.6667V33.3334H15.8333ZM25 33.3334H22.5V36.6667C22.5 36.9982 22.6317 37.3162 22.8661 37.5506C23.1005 37.785 23.4185 37.9167 23.75 37.9167C24.0815 37.9167 24.3994 37.785 24.6339 37.5506C24.8683 37.3162 25 36.9982 25 36.6667V33.3334Z" fill="#F15454"/>
<path fill-rule="evenodd" clip-rule="evenodd" d="M7.08331 26.6667C7.08331 26.3351 7.21501 26.0172 7.44943 25.7828C7.68385 25.5484 8.00179 25.4167 8.33331 25.4167H13.3333C13.6648 25.4167 13.9828 25.5484 14.2172 25.7828C14.4516 26.0172 14.5833 26.3351 14.5833 26.6667C14.5833 26.9982 14.4516 27.3161 14.2172 27.5506C13.9828 27.785 13.6648 27.9167 13.3333 27.9167H8.33331C8.00179 27.9167 7.68385 27.785 7.44943 27.5506C7.21501 27.3161 7.08331 26.9982 7.08331 26.6667ZM28.975 10.975L29.4016 10.8883C30.0946 10.7518 30.8123 10.8184 31.4683 11.08C32.6183 11.5417 33.8783 11.6267 35.0766 11.3267L35.1783 11.3017C36.0516 11.0833 36.6666 10.2717 36.6666 9.33833V5.78833C36.6666 4.55833 35.56 3.65167 34.4083 3.94C33.7483 4.10667 33.055 4.05833 32.42 3.805L32.2983 3.755C31.2412 3.32877 30.0824 3.22157 28.965 3.44667L28.2166 3.59667C27.3166 3.77667 26.6666 4.59667 26.6666 5.54667V17.135C26.6666 17.7967 27.1833 18.3333 27.82 18.3333C27.9747 18.3305 28.1273 18.2972 28.269 18.2354C28.4108 18.1735 28.539 18.0843 28.6463 17.9728C28.7536 17.8614 28.8378 17.7299 28.8942 17.5858C28.9506 17.4418 28.9781 17.288 28.975 17.1333V10.975Z" fill="#F15454"/>
</svg>
