<svg width="65" height="65" viewBox="0 0 65 65" fill="none" xmlns="http://www.w3.org/2000/svg">
<g clip-path="url(#clip0_51_136)">
<path fill-rule="evenodd" clip-rule="evenodd" d="M44.2083 43.5C47.6979 43.5002 51.0527 44.8475 53.5731 47.261C56.0936 49.6744 57.585 52.9677 57.7365 56.454L57.75 57.0417V59.75C57.7504 61.1166 57.2343 62.4328 56.3051 63.4348C55.3759 64.4369 54.1023 65.0506 52.7396 65.1531L52.3333 65.1667H14.4167C13.0501 65.1671 11.7339 64.651 10.7318 63.7218C9.72982 62.7926 9.11603 61.519 9.01354 60.1562L9 59.75V57.0417C9.0002 53.5521 10.3475 50.1973 12.761 47.6769C15.1744 45.1564 18.4677 43.665 21.954 43.5135L22.5417 43.5H44.2083ZM44.2083 48.9167H22.5417C20.4692 48.9166 18.4751 49.7084 16.9672 51.1301C15.4594 52.5519 14.5518 54.4961 14.4302 56.565L14.4167 57.0417V59.75H52.3333V57.0417C52.3334 54.9692 51.5416 52.9751 50.1199 51.4672C48.6981 49.9594 46.7539 49.0518 44.685 48.9302L44.2083 48.9167ZM33.375 11C36.9665 11 40.4108 12.4267 42.9504 14.9663C45.49 17.5058 46.9167 20.9502 46.9167 24.5417C46.9167 28.1331 45.49 31.5775 42.9504 34.1171C40.4108 36.6566 36.9665 38.0833 33.375 38.0833C29.7835 38.0833 26.3391 36.6566 23.7996 34.1171C21.26 31.5775 19.8333 28.1331 19.8333 24.5417C19.8333 20.9502 21.26 17.5058 23.7996 14.9663C26.3391 12.4267 29.7835 11 33.375 11ZM33.375 16.4167C32.308 16.4167 31.2515 16.6268 30.2657 17.0351C29.2799 17.4435 28.3842 18.0419 27.6298 18.7964C26.8753 19.5509 26.2768 20.4466 25.8685 21.4324C25.4602 22.4181 25.25 23.4747 25.25 24.5417C25.25 25.6087 25.4602 26.6652 25.8685 27.651C26.2768 28.6367 26.8753 29.5324 27.6298 30.2869C28.3842 31.0414 29.2799 31.6399 30.2657 32.0482C31.2515 32.4565 32.308 32.6667 33.375 32.6667C35.5299 32.6667 37.5965 31.8106 39.1202 30.2869C40.644 28.7632 41.5 26.6966 41.5 24.5417C41.5 22.3868 40.644 20.3202 39.1202 18.7964C37.5965 17.2727 35.5299 16.4167 33.375 16.4167Z" fill="#F6E7D8"/>
</g>
<defs>
<clipPath id="clip0_51_136">
<rect width="65" height="65" fill="white"/>
</clipPath>
</defs>
</svg>
